<?xml version="1.0" encoding="utf-8"?>
<!-- Generator: Adobe Illustrator 18.1.1, SVG Export Plug-In . SVG Version: 6.00 Build 0)  -->
<svg version="1.1" id="Layer_1" xmlns="http://www.w3.org/2000/svg" xmlns:xlink="http://www.w3.org/1999/xlink" x="0px" y="0px"
	 viewBox="0 0 64 64" enable-background="new 0 0 64 64" xml:space="preserve">
<g>
	<g>
		<path d="M25.7,17.7c0.2,1.5,0.5,3,0.7,4.6l0.6,4.6l0.5,4.6c0.2,1.5,0.3,3.1,0.4,4.6c0.3,3.1,0.5,6.1,0.8,9.2
			c0.1,1.5,0.2,3.1,0.3,4.6l0.3,4.6l-3,0.2L26.1,50c-0.1-1.5-0.2-3.1-0.2-4.6c-0.1-3.1-0.2-6.1-0.3-9.2l-0.1-4.6l0-4.6
			C25.6,23.9,25.6,20.8,25.7,17.7z M25.7,17.7c0.5,3,0.9,6.1,1.3,9.1l0.5,4.6L28,36c0.3,3.1,0.5,6.1,0.8,9.2
			c0.1,1.5,0.2,3.1,0.3,4.6l0.3,4.6l-3,0.2L26.1,50c-0.1-1.5-0.2-3.1-0.2-4.6c-0.1-3.1-0.2-6.1-0.3-9.2c0-1.5-0.1-3.1-0.1-4.6l0-4.6
			l0.1-4.6C25.6,20.8,25.7,19.3,25.7,17.7z"/>
	</g>
	<g>
		<path d="M7.3,23.8c3.2-2.3,6.4-4.4,9.8-6.5c3.3-2.1,6.7-4.1,10.1-6.1c3.4-2,6.9-3.8,10.4-5.5c1.8-0.8,3.6-1.6,5.5-2.3
			C45,2.8,46.9,2.1,49,1.8c1.1-0.1,2.2-0.3,3.5,0c0.6,0.2,1.4,0.5,2,1.2c0.6,0.7,0.8,1.5,0.8,2.2c0.1,1.4-0.3,2.4-0.7,3.5
			c-0.4,1-0.8,1.9-1.3,2.8c-2,3.6-4.3,6.7-6.8,9.8c-1.2,1.5-2.5,3.1-3.8,4.6c-1.3,1.5-2.6,3-3.9,4.4c-2.6,2.9-5.3,5.8-8,8.6l-1-2.1
			c1-0.1,2.1,0.2,2.9,0.7c0.8,0.5,1.4,1.2,1.9,1.9c1,1.4,1.6,2.8,2.2,4.2c1.1,2.9,1.9,5.8,2.9,8.5c0.5,1.4,1.1,2.8,1.7,4
			c0.7,1.3,1.5,2.5,2.6,3.4c0.5,0.4,1.2,0.8,1.8,1c0.7,0.2,1.4,0.2,2.1,0.1c1.4-0.2,2.8-0.8,4.2-1.5c-1.2,0.9-2.5,1.7-4.1,2
			c-0.8,0.2-1.6,0.2-2.4,0.1c-0.8-0.1-1.6-0.5-2.2-0.9c-1.3-0.9-2.3-2.2-3.2-3.5c-0.8-1.3-1.5-2.7-2.1-4.1c-1.2-2.8-2.2-5.6-3.4-8.3
			c-0.6-1.3-1.3-2.6-2.1-3.7c-0.4-0.5-0.9-0.9-1.3-1.2c-0.5-0.3-0.9-0.3-1.4-0.3l-3.3,0.4l2.2-2.5c2.6-2.9,5.2-5.8,7.7-8.7
			c2.5-2.9,5.1-5.9,7.4-8.9c1.2-1.5,2.3-3.1,3.5-4.6c1.1-1.6,2.2-3.1,3.1-4.8c0.5-0.8,0.9-1.6,1.2-2.5c0.3-0.8,0.5-1.7,0.5-2.2
			c0-0.3-0.1-0.4-0.2-0.5c-0.1-0.1-0.2-0.2-0.5-0.3c-0.6-0.2-1.5-0.2-2.3,0c-1.8,0.2-3.6,0.8-5.4,1.4c-1.8,0.6-3.6,1.3-5.4,2.1
			C35,9.5,31.5,11.2,28,12.9C21.1,16.4,14.2,20.1,7.3,23.8z"/>
	</g>
</g>
</svg>
